<svg xmlns="http://www.w3.org/2000/svg" version="1.1" xmlns:xlink="http://www.w3.org/1999/xlink" xmlns:svgjs="http://svgjs.com/svgjs" width="2560" height="560" preserveAspectRatio="none" viewBox="0 0 2560 560"><g mask="url(&quot;#SvgjsMask3958&quot;)" fill="none"><rect width="2560" height="560" x="0" y="0" fill="rgba(254, 254, 255, 1)"></rect><path d="M117.02 131.6L228.74 196.1L228.74 325.1L117.02 389.6L5.3 325.1L5.3 196.1zM5.3 325.1L117.02 389.6L117.02 518.6L5.3 583.1L-106.42 518.6L-106.42 389.6zM117.02 518.6L228.74 583.1L228.74 712.1L117.02 776.6L5.3 712.1L5.3 583.1zM340.46 131.6L452.18 196.1L452.18 325.1L340.46 389.6L228.74 325.1L228.74 196.1zM228.74 325.1L340.46 389.6L340.46 518.6L228.74 583.1L117.02 518.6L117.02 389.6zM452.18 -61.9L563.9 2.6L563.9 131.6L452.18 196.1L340.46 131.6L340.46 2.6zM675.62 -61.9L787.34 2.6L787.34 131.6L675.62 196.1L563.9 131.6L563.9 2.6zM787.34 131.6L899.06 196.1L899.06 325.1L787.34 389.6L675.62 325.1L675.62 196.1zM899.06 -61.9L1010.78 2.6L1010.78 131.6L899.06 196.1L787.34 131.6L787.34 2.6zM1010.78 131.6L1122.5 196.1L1122.5 325.1L1010.78 389.6L899.06 325.1L899.06 196.1zM1569.39 -61.9L1681.11 2.6L1681.11 131.6L1569.39 196.1L1457.67 131.6L1457.67 2.6zM1569.39 325.1L1681.11 389.6L1681.11 518.6L1569.39 583.1L1457.67 518.6L1457.67 389.6zM1681.11 518.6L1792.83 583.1L1792.83 712.1L1681.11 776.6L1569.39 712.1L1569.39 583.1zM1792.83 325.1L1904.55 389.6L1904.55 518.6L1792.83 583.1L1681.11 518.6L1681.11 389.6zM1904.55 518.6L2016.27 583.1L2016.27 712.1L1904.55 776.6L1792.83 712.1L1792.83 583.1zM2016.27 -61.9L2127.99 2.6L2127.99 131.6L2016.27 196.1L1904.55 131.6L1904.55 2.6zM2016.27 325.1L2127.99 389.6L2127.99 518.6L2016.27 583.1L1904.55 518.6L1904.55 389.6zM2239.71 -61.9L2351.43 2.6L2351.43 131.6L2239.71 196.1L2127.99 131.6L2127.99 2.6zM2351.43 131.6L2463.15 196.1L2463.15 325.1L2351.43 389.6L2239.71 325.1L2239.71 196.1zM2574.87 518.6L2686.59 583.1L2686.59 712.1L2574.87 776.6L2463.15 712.1L2463.15 583.1z" stroke="#03305d" stroke-width="2"></path><path d="M104.12 131.6 a12.9 12.9 0 1 0 25.8 0 a12.9 12.9 0 1 0 -25.8 0zM215.84 196.1 a12.9 12.9 0 1 0 25.8 0 a12.9 12.9 0 1 0 -25.8 0zM215.84 325.1 a12.9 12.9 0 1 0 25.8 0 a12.9 12.9 0 1 0 -25.8 0zM104.12 389.6 a12.9 12.9 0 1 0 25.8 0 a12.9 12.9 0 1 0 -25.8 0zM-7.6 325.1 a12.9 12.9 0 1 0 25.8 0 a12.9 12.9 0 1 0 -25.8 0zM-7.6 196.1 a12.9 12.9 0 1 0 25.8 0 a12.9 12.9 0 1 0 -25.8 0zM104.12 518.6 a12.9 12.9 0 1 0 25.8 0 a12.9 12.9 0 1 0 -25.8 0zM-7.6 583.1 a12.9 12.9 0 1 0 25.8 0 a12.9 12.9 0 1 0 -25.8 0zM-119.32 518.6 a12.9 12.9 0 1 0 25.8 0 a12.9 12.9 0 1 0 -25.8 0zM-119.32 389.6 a12.9 12.9 0 1 0 25.8 0 a12.9 12.9 0 1 0 -25.8 0zM215.84 583.1 a12.9 12.9 0 1 0 25.8 0 a12.9 12.9 0 1 0 -25.8 0zM215.84 712.1 a12.9 12.9 0 1 0 25.8 0 a12.9 12.9 0 1 0 -25.8 0zM104.12 776.6 a12.9 12.9 0 1 0 25.8 0 a12.9 12.9 0 1 0 -25.8 0zM-7.6 712.1 a12.9 12.9 0 1 0 25.8 0 a12.9 12.9 0 1 0 -25.8 0zM327.56 131.6 a12.9 12.9 0 1 0 25.8 0 a12.9 12.9 0 1 0 -25.8 0zM439.28 196.1 a12.9 12.9 0 1 0 25.8 0 a12.9 12.9 0 1 0 -25.8 0zM439.28 325.1 a12.9 12.9 0 1 0 25.8 0 a12.9 12.9 0 1 0 -25.8 0zM327.56 389.6 a12.9 12.9 0 1 0 25.8 0 a12.9 12.9 0 1 0 -25.8 0zM327.56 518.6 a12.9 12.9 0 1 0 25.8 0 a12.9 12.9 0 1 0 -25.8 0zM439.28 -61.9 a12.9 12.9 0 1 0 25.8 0 a12.9 12.9 0 1 0 -25.8 0zM551 2.6 a12.9 12.9 0 1 0 25.8 0 a12.9 12.9 0 1 0 -25.8 0zM551 131.6 a12.9 12.9 0 1 0 25.8 0 a12.9 12.9 0 1 0 -25.8 0zM327.56 2.6 a12.9 12.9 0 1 0 25.8 0 a12.9 12.9 0 1 0 -25.8 0zM662.72 -61.9 a12.9 12.9 0 1 0 25.8 0 a12.9 12.9 0 1 0 -25.8 0zM774.44 2.6 a12.9 12.9 0 1 0 25.8 0 a12.9 12.9 0 1 0 -25.8 0zM774.44 131.6 a12.9 12.9 0 1 0 25.8 0 a12.9 12.9 0 1 0 -25.8 0zM662.72 196.1 a12.9 12.9 0 1 0 25.8 0 a12.9 12.9 0 1 0 -25.8 0zM886.16 196.1 a12.9 12.9 0 1 0 25.8 0 a12.9 12.9 0 1 0 -25.8 0zM886.16 325.1 a12.9 12.9 0 1 0 25.8 0 a12.9 12.9 0 1 0 -25.8 0zM774.44 389.6 a12.9 12.9 0 1 0 25.8 0 a12.9 12.9 0 1 0 -25.8 0zM662.72 325.1 a12.9 12.9 0 1 0 25.8 0 a12.9 12.9 0 1 0 -25.8 0zM886.16 -61.9 a12.9 12.9 0 1 0 25.8 0 a12.9 12.9 0 1 0 -25.8 0zM997.88 2.6 a12.9 12.9 0 1 0 25.8 0 a12.9 12.9 0 1 0 -25.8 0zM997.88 131.6 a12.9 12.9 0 1 0 25.8 0 a12.9 12.9 0 1 0 -25.8 0zM1109.6 196.1 a12.9 12.9 0 1 0 25.8 0 a12.9 12.9 0 1 0 -25.8 0zM1109.6 325.1 a12.9 12.9 0 1 0 25.8 0 a12.9 12.9 0 1 0 -25.8 0zM997.88 389.6 a12.9 12.9 0 1 0 25.8 0 a12.9 12.9 0 1 0 -25.8 0zM1556.49 -61.9 a12.9 12.9 0 1 0 25.8 0 a12.9 12.9 0 1 0 -25.8 0zM1668.21 2.6 a12.9 12.9 0 1 0 25.8 0 a12.9 12.9 0 1 0 -25.8 0zM1668.21 131.6 a12.9 12.9 0 1 0 25.8 0 a12.9 12.9 0 1 0 -25.8 0zM1556.49 196.1 a12.9 12.9 0 1 0 25.8 0 a12.9 12.9 0 1 0 -25.8 0zM1444.77 131.6 a12.9 12.9 0 1 0 25.8 0 a12.9 12.9 0 1 0 -25.8 0zM1444.77 2.6 a12.9 12.9 0 1 0 25.8 0 a12.9 12.9 0 1 0 -25.8 0zM1556.49 325.1 a12.9 12.9 0 1 0 25.8 0 a12.9 12.9 0 1 0 -25.8 0zM1668.21 389.6 a12.9 12.9 0 1 0 25.8 0 a12.9 12.9 0 1 0 -25.8 0zM1668.21 518.6 a12.9 12.9 0 1 0 25.8 0 a12.9 12.9 0 1 0 -25.8 0zM1556.49 583.1 a12.9 12.9 0 1 0 25.8 0 a12.9 12.9 0 1 0 -25.8 0zM1444.77 518.6 a12.9 12.9 0 1 0 25.8 0 a12.9 12.9 0 1 0 -25.8 0zM1444.77 389.6 a12.9 12.9 0 1 0 25.8 0 a12.9 12.9 0 1 0 -25.8 0zM1779.93 583.1 a12.9 12.9 0 1 0 25.8 0 a12.9 12.9 0 1 0 -25.8 0zM1779.93 712.1 a12.9 12.9 0 1 0 25.8 0 a12.9 12.9 0 1 0 -25.8 0zM1668.21 776.6 a12.9 12.9 0 1 0 25.8 0 a12.9 12.9 0 1 0 -25.8 0zM1556.49 712.1 a12.9 12.9 0 1 0 25.8 0 a12.9 12.9 0 1 0 -25.8 0zM1779.93 325.1 a12.9 12.9 0 1 0 25.8 0 a12.9 12.9 0 1 0 -25.8 0zM1891.65 389.6 a12.9 12.9 0 1 0 25.8 0 a12.9 12.9 0 1 0 -25.8 0zM1891.65 518.6 a12.9 12.9 0 1 0 25.8 0 a12.9 12.9 0 1 0 -25.8 0zM2003.37 583.1 a12.9 12.9 0 1 0 25.8 0 a12.9 12.9 0 1 0 -25.8 0zM2003.37 712.1 a12.9 12.9 0 1 0 25.8 0 a12.9 12.9 0 1 0 -25.8 0zM1891.65 776.6 a12.9 12.9 0 1 0 25.8 0 a12.9 12.9 0 1 0 -25.8 0zM2003.37 -61.9 a12.9 12.9 0 1 0 25.8 0 a12.9 12.9 0 1 0 -25.8 0zM2115.09 2.6 a12.9 12.9 0 1 0 25.8 0 a12.9 12.9 0 1 0 -25.8 0zM2115.09 131.6 a12.9 12.9 0 1 0 25.8 0 a12.9 12.9 0 1 0 -25.8 0zM2003.37 196.1 a12.9 12.9 0 1 0 25.8 0 a12.9 12.9 0 1 0 -25.8 0zM1891.65 131.6 a12.9 12.9 0 1 0 25.8 0 a12.9 12.9 0 1 0 -25.8 0zM1891.65 2.6 a12.9 12.9 0 1 0 25.8 0 a12.9 12.9 0 1 0 -25.8 0zM2003.37 325.1 a12.9 12.9 0 1 0 25.8 0 a12.9 12.9 0 1 0 -25.8 0zM2115.09 389.6 a12.9 12.9 0 1 0 25.8 0 a12.9 12.9 0 1 0 -25.8 0zM2115.09 518.6 a12.9 12.9 0 1 0 25.8 0 a12.9 12.9 0 1 0 -25.8 0zM2226.81 -61.9 a12.9 12.9 0 1 0 25.8 0 a12.9 12.9 0 1 0 -25.8 0zM2338.53 2.6 a12.9 12.9 0 1 0 25.8 0 a12.9 12.9 0 1 0 -25.8 0zM2338.53 131.6 a12.9 12.9 0 1 0 25.8 0 a12.9 12.9 0 1 0 -25.8 0zM2226.81 196.1 a12.9 12.9 0 1 0 25.8 0 a12.9 12.9 0 1 0 -25.8 0zM2450.25 196.1 a12.9 12.9 0 1 0 25.8 0 a12.9 12.9 0 1 0 -25.8 0zM2450.25 325.1 a12.9 12.9 0 1 0 25.8 0 a12.9 12.9 0 1 0 -25.8 0zM2338.53 389.6 a12.9 12.9 0 1 0 25.8 0 a12.9 12.9 0 1 0 -25.8 0zM2226.81 325.1 a12.9 12.9 0 1 0 25.8 0 a12.9 12.9 0 1 0 -25.8 0zM2561.97 518.6 a12.9 12.9 0 1 0 25.8 0 a12.9 12.9 0 1 0 -25.8 0zM2673.69 583.1 a12.9 12.9 0 1 0 25.8 0 a12.9 12.9 0 1 0 -25.8 0zM2673.69 712.1 a12.9 12.9 0 1 0 25.8 0 a12.9 12.9 0 1 0 -25.8 0zM2561.97 776.6 a12.9 12.9 0 1 0 25.8 0 a12.9 12.9 0 1 0 -25.8 0zM2450.25 712.1 a12.9 12.9 0 1 0 25.8 0 a12.9 12.9 0 1 0 -25.8 0zM2450.25 583.1 a12.9 12.9 0 1 0 25.8 0 a12.9 12.9 0 1 0 -25.8 0z" fill="#03305d"></path><path d="M58.63 254.59L135.71 299.09L135.71 388.09L58.63 432.59L-18.45 388.09L-18.45 299.09zM58.63 521.59L135.71 566.09L135.71 655.09L58.63 699.59L-18.45 655.09L-18.45 566.09zM212.79 -12.41L289.87 32.09L289.87 121.09L212.79 165.59L135.71 121.09L135.71 32.09zM212.79 521.59L289.87 566.09L289.87 655.09L212.79 699.59L135.71 655.09L135.71 566.09zM444.02 121.09L521.1 165.59L521.1 254.59L444.02 299.09L366.94 254.59L366.94 165.59zM366.94 254.59L444.02 299.09L444.02 388.09L366.94 432.59L289.87 388.09L289.87 299.09zM366.94 521.59L444.02 566.09L444.02 655.09L366.94 699.59L289.87 655.09L289.87 566.09zM521.1 -12.41L598.18 32.09L598.18 121.09L521.1 165.59L444.02 121.09L444.02 32.09zM521.1 254.59L598.18 299.09L598.18 388.09L521.1 432.59L444.02 388.09L444.02 299.09zM521.1 521.59L598.18 566.09L598.18 655.09L521.1 699.59L444.02 655.09L444.02 566.09zM752.34 121.09L829.41 165.59L829.41 254.59L752.34 299.09L675.26 254.59L675.26 165.59zM829.41 -12.41L906.49 32.09L906.49 121.09L829.41 165.59L752.34 121.09L752.34 32.09zM829.41 254.59L906.49 299.09L906.49 388.09L829.41 432.59L752.34 388.09L752.34 299.09zM829.41 521.59L906.49 566.09L906.49 655.09L829.41 699.59L752.34 655.09L752.34 566.09zM983.57 254.59L1060.65 299.09L1060.65 388.09L983.57 432.59L906.49 388.09L906.49 299.09zM1368.96 121.09L1446.04 165.59L1446.04 254.59L1368.96 299.09L1291.89 254.59L1291.89 165.59zM1291.89 521.59L1368.96 566.09L1368.96 655.09L1291.89 699.59L1214.81 655.09L1214.81 566.09zM1446.04 254.59L1523.12 299.09L1523.12 388.09L1446.04 432.59L1368.96 388.09L1368.96 299.09zM1523.12 388.09L1600.2 432.59L1600.2 521.59L1523.12 566.09L1446.04 521.59L1446.04 432.59zM1677.28 388.09L1754.36 432.59L1754.36 521.59L1677.28 566.09L1600.2 521.59L1600.2 432.59zM1831.43 388.09L1908.51 432.59L1908.51 521.59L1831.43 566.09L1754.36 521.59L1754.36 432.59zM1985.59 121.09L2062.67 165.59L2062.67 254.59L1985.59 299.09L1908.51 254.59L1908.51 165.59zM1908.51 254.59L1985.59 299.09L1985.59 388.09L1908.51 432.59L1831.43 388.09L1831.43 299.09zM1985.59 388.09L2062.67 432.59L2062.67 521.59L1985.59 566.09L1908.51 521.59L1908.51 432.59zM2062.67 -12.41L2139.75 32.09L2139.75 121.09L2062.67 165.59L1985.59 121.09L1985.59 32.09zM2062.67 521.59L2139.75 566.09L2139.75 655.09L2062.67 699.59L1985.59 655.09L1985.59 566.09zM2216.83 521.59L2293.91 566.09L2293.91 655.09L2216.83 699.59L2139.75 655.09L2139.75 566.09zM2448.06 121.09L2525.14 165.59L2525.14 254.59L2448.06 299.09L2370.98 254.59L2370.98 165.59zM2370.98 254.59L2448.06 299.09L2448.06 388.09L2370.98 432.59L2293.91 388.09L2293.91 299.09zM2448.06 388.09L2525.14 432.59L2525.14 521.59L2448.06 566.09L2370.98 521.59L2370.98 432.59zM2602.22 121.09L2679.3 165.59L2679.3 254.59L2602.22 299.09L2525.14 254.59L2525.14 165.59zM2602.22 388.09L2679.3 432.59L2679.3 521.59L2602.22 566.09L2525.14 521.59L2525.14 432.59z" stroke="rgba(255, 154, 0, 1)" stroke-width="2"></path></g><defs><mask id="SvgjsMask3958"><rect width="2560" height="560" fill="#ffffff"></rect></mask></defs></svg>