<svg xmlns="http://www.w3.org/2000/svg" version="1.1" xmlns:xlink="http://www.w3.org/1999/xlink" xmlns:svgjs="http://svgjs.com/svgjs" width="2560" height="560" preserveAspectRatio="none" viewBox="0 0 2560 560"><g mask="url(&quot;#SvgjsMask3202&quot;)" fill="none"><rect width="2560" height="560" x="0" y="0" fill="url(#SvgjsRadialGradient3203)"></rect><path d="M82.6 393.9L198.65 460.9L198.65 594.9L82.6 661.9L-33.45 594.9L-33.45 460.9zM662.85 594.9L778.9 661.9L778.9 795.9L662.85 862.9L546.8 795.9L546.8 661.9zM778.9 -8.1L894.95 58.9L894.95 192.9L778.9 259.9L662.85 192.9L662.85 58.9zM894.95 192.9L1011.01 259.9L1011.01 393.9L894.95 460.9L778.9 393.9L778.9 259.9zM1127.06 192.9L1243.11 259.9L1243.11 393.9L1127.06 460.9L1011.01 393.9L1011.01 259.9zM1707.31 393.9L1823.36 460.9L1823.36 594.9L1707.31 661.9L1591.26 594.9L1591.26 460.9zM2287.56 192.9L2403.61 259.9L2403.61 393.9L2287.56 460.9L2171.51 393.9L2171.51 259.9zM2171.51 393.9L2287.56 460.9L2287.56 594.9L2171.51 661.9L2055.46 594.9L2055.46 460.9zM2403.61 393.9L2519.66 460.9L2519.66 594.9L2403.61 661.9L2287.56 594.9L2287.56 460.9z" stroke="#03305d" stroke-width="2"></path><path d="M69.2 393.9 a13.4 13.4 0 1 0 26.8 0 a13.4 13.4 0 1 0 -26.8 0zM185.25 460.9 a13.4 13.4 0 1 0 26.8 0 a13.4 13.4 0 1 0 -26.8 0zM185.25 594.9 a13.4 13.4 0 1 0 26.8 0 a13.4 13.4 0 1 0 -26.8 0zM69.2 661.9 a13.4 13.4 0 1 0 26.8 0 a13.4 13.4 0 1 0 -26.8 0zM-46.85 594.9 a13.4 13.4 0 1 0 26.8 0 a13.4 13.4 0 1 0 -26.8 0zM-46.85 460.9 a13.4 13.4 0 1 0 26.8 0 a13.4 13.4 0 1 0 -26.8 0zM649.45 594.9 a13.4 13.4 0 1 0 26.8 0 a13.4 13.4 0 1 0 -26.8 0zM765.5 661.9 a13.4 13.4 0 1 0 26.8 0 a13.4 13.4 0 1 0 -26.8 0zM765.5 795.9 a13.4 13.4 0 1 0 26.8 0 a13.4 13.4 0 1 0 -26.8 0zM649.45 862.9 a13.4 13.4 0 1 0 26.8 0 a13.4 13.4 0 1 0 -26.8 0zM533.4 795.9 a13.4 13.4 0 1 0 26.8 0 a13.4 13.4 0 1 0 -26.8 0zM533.4 661.9 a13.4 13.4 0 1 0 26.8 0 a13.4 13.4 0 1 0 -26.8 0zM765.5 -8.1 a13.4 13.4 0 1 0 26.8 0 a13.4 13.4 0 1 0 -26.8 0zM881.55 58.9 a13.4 13.4 0 1 0 26.8 0 a13.4 13.4 0 1 0 -26.8 0zM881.55 192.9 a13.4 13.4 0 1 0 26.8 0 a13.4 13.4 0 1 0 -26.8 0zM765.5 259.9 a13.4 13.4 0 1 0 26.8 0 a13.4 13.4 0 1 0 -26.8 0zM649.45 192.9 a13.4 13.4 0 1 0 26.8 0 a13.4 13.4 0 1 0 -26.8 0zM649.45 58.9 a13.4 13.4 0 1 0 26.8 0 a13.4 13.4 0 1 0 -26.8 0zM997.61 259.9 a13.4 13.4 0 1 0 26.8 0 a13.4 13.4 0 1 0 -26.8 0zM997.61 393.9 a13.4 13.4 0 1 0 26.8 0 a13.4 13.4 0 1 0 -26.8 0zM881.55 460.9 a13.4 13.4 0 1 0 26.8 0 a13.4 13.4 0 1 0 -26.8 0zM765.5 393.9 a13.4 13.4 0 1 0 26.8 0 a13.4 13.4 0 1 0 -26.8 0zM1113.66 192.9 a13.4 13.4 0 1 0 26.8 0 a13.4 13.4 0 1 0 -26.8 0zM1229.71 259.9 a13.4 13.4 0 1 0 26.8 0 a13.4 13.4 0 1 0 -26.8 0zM1229.71 393.9 a13.4 13.4 0 1 0 26.8 0 a13.4 13.4 0 1 0 -26.8 0zM1113.66 460.9 a13.4 13.4 0 1 0 26.8 0 a13.4 13.4 0 1 0 -26.8 0zM1693.91 393.9 a13.4 13.4 0 1 0 26.8 0 a13.4 13.4 0 1 0 -26.8 0zM1809.96 460.9 a13.4 13.4 0 1 0 26.8 0 a13.4 13.4 0 1 0 -26.8 0zM1809.96 594.9 a13.4 13.4 0 1 0 26.8 0 a13.4 13.4 0 1 0 -26.8 0zM1693.91 661.9 a13.4 13.4 0 1 0 26.8 0 a13.4 13.4 0 1 0 -26.8 0zM1577.86 594.9 a13.4 13.4 0 1 0 26.8 0 a13.4 13.4 0 1 0 -26.8 0zM1577.86 460.9 a13.4 13.4 0 1 0 26.8 0 a13.4 13.4 0 1 0 -26.8 0zM2274.16 192.9 a13.4 13.4 0 1 0 26.8 0 a13.4 13.4 0 1 0 -26.8 0zM2390.21 259.9 a13.4 13.4 0 1 0 26.8 0 a13.4 13.4 0 1 0 -26.8 0zM2390.21 393.9 a13.4 13.4 0 1 0 26.8 0 a13.4 13.4 0 1 0 -26.8 0zM2274.16 460.9 a13.4 13.4 0 1 0 26.8 0 a13.4 13.4 0 1 0 -26.8 0zM2158.11 393.9 a13.4 13.4 0 1 0 26.8 0 a13.4 13.4 0 1 0 -26.8 0zM2158.11 259.9 a13.4 13.4 0 1 0 26.8 0 a13.4 13.4 0 1 0 -26.8 0zM2274.16 594.9 a13.4 13.4 0 1 0 26.8 0 a13.4 13.4 0 1 0 -26.8 0zM2158.11 661.9 a13.4 13.4 0 1 0 26.8 0 a13.4 13.4 0 1 0 -26.8 0zM2042.06 594.9 a13.4 13.4 0 1 0 26.8 0 a13.4 13.4 0 1 0 -26.8 0zM2042.06 460.9 a13.4 13.4 0 1 0 26.8 0 a13.4 13.4 0 1 0 -26.8 0zM2506.26 460.9 a13.4 13.4 0 1 0 26.8 0 a13.4 13.4 0 1 0 -26.8 0zM2506.26 594.9 a13.4 13.4 0 1 0 26.8 0 a13.4 13.4 0 1 0 -26.8 0zM2390.21 661.9 a13.4 13.4 0 1 0 26.8 0 a13.4 13.4 0 1 0 -26.8 0z" fill="#03305d"></path><path d="M125.69 -39.97L259.93 37.53L259.93 192.53L125.69 270.03L-8.55 192.53L-8.55 37.53zM259.93 192.53L394.17 270.03L394.17 425.03L259.93 502.53L125.69 425.03L125.69 270.03zM125.69 425.03L259.93 502.53L259.93 657.53L125.69 735.03L-8.55 657.53L-8.55 502.53zM662.64 425.03L796.88 502.53L796.88 657.53L662.64 735.03L528.4 657.53L528.4 502.53zM931.12 -39.97L1065.35 37.53L1065.35 192.53L931.12 270.03L796.88 192.53L796.88 37.53zM931.12 425.03L1065.35 502.53L1065.35 657.53L931.12 735.03L796.88 657.53L796.88 502.53zM1199.59 -39.97L1333.83 37.53L1333.83 192.53L1199.59 270.03L1065.35 192.53L1065.35 37.53zM1199.59 425.03L1333.83 502.53L1333.83 657.53L1199.59 735.03L1065.35 657.53L1065.35 502.53zM1736.54 -39.97L1870.78 37.53L1870.78 192.53L1736.54 270.03L1602.31 192.53L1602.31 37.53zM1870.78 192.53L2005.02 270.03L2005.02 425.03L1870.78 502.53L1736.54 425.03L1736.54 270.03zM2139.26 192.53L2273.49 270.03L2273.49 425.03L2139.26 502.53L2005.02 425.03L2005.02 270.03zM2005.02 425.03L2139.26 502.53L2139.26 657.53L2005.02 735.03L1870.78 657.53L1870.78 502.53z" stroke="rgba(6, 80, 156, 0.93)" stroke-width="2"></path></g><defs><mask id="SvgjsMask3202"><rect width="2560" height="560" fill="#ffffff"></rect></mask><radialGradient cx="100%" cy="100%" r="2620.53" gradientUnits="userSpaceOnUse" id="SvgjsRadialGradient3203"><stop stop-color="#0e2a47" offset="0"></stop><stop stop-color="rgba(106, 169, 250, 1)" offset="0.81"></stop></radialGradient></defs></svg>