<svg xmlns="http://www.w3.org/2000/svg" version="1.1" xmlns:xlink="http://www.w3.org/1999/xlink" xmlns:svgjs="http://svgjs.com/svgjs" width="1440" height="260" preserveAspectRatio="none" viewBox="0 0 1440 260"><g mask="url(&quot;#SvgjsMask1708&quot;)" fill="none"><rect width="1440" height="260" x="0" y="0" fill="url(#SvgjsLinearGradient1709)"></rect><path d="M389.28 177.44L465.49 221.44L465.49 309.44L389.28 353.44L313.07 309.44L313.07 221.44zM770.34 45.44L846.55 89.44L846.55 177.44L770.34 221.44L694.13 177.44L694.13 89.44zM694.13 177.44L770.34 221.44L770.34 309.44L694.13 353.44L617.92 309.44L617.92 221.44zM846.55 -86.56L922.77 -42.56L922.77 45.44L846.55 89.44L770.34 45.44L770.34 -42.56zM922.77 45.44L998.98 89.44L998.98 177.44L922.77 221.44L846.55 177.44L846.55 89.44zM1303.83 -86.56L1380.04 -42.56L1380.04 45.44L1303.83 89.44L1227.62 45.44L1227.62 -42.56zM1303.83 177.44L1380.04 221.44L1380.04 309.44L1303.83 353.44L1227.62 309.44L1227.62 221.44zM1456.25 177.44L1532.47 221.44L1532.47 309.44L1456.25 353.44L1380.04 309.44L1380.04 221.44z" stroke="#03305d" stroke-width="2"></path><path d="M380.48 177.44 a8.8 8.8 0 1 0 17.6 0 a8.8 8.8 0 1 0 -17.6 0zM456.69 221.44 a8.8 8.8 0 1 0 17.6 0 a8.8 8.8 0 1 0 -17.6 0zM456.69 309.44 a8.8 8.8 0 1 0 17.6 0 a8.8 8.8 0 1 0 -17.6 0zM380.48 353.44 a8.8 8.8 0 1 0 17.6 0 a8.8 8.8 0 1 0 -17.6 0zM304.27 309.44 a8.8 8.8 0 1 0 17.6 0 a8.8 8.8 0 1 0 -17.6 0zM304.27 221.44 a8.8 8.8 0 1 0 17.6 0 a8.8 8.8 0 1 0 -17.6 0zM761.54 45.44 a8.8 8.8 0 1 0 17.6 0 a8.8 8.8 0 1 0 -17.6 0zM837.75 89.44 a8.8 8.8 0 1 0 17.6 0 a8.8 8.8 0 1 0 -17.6 0zM837.75 177.44 a8.8 8.8 0 1 0 17.6 0 a8.8 8.8 0 1 0 -17.6 0zM761.54 221.44 a8.8 8.8 0 1 0 17.6 0 a8.8 8.8 0 1 0 -17.6 0zM685.33 177.44 a8.8 8.8 0 1 0 17.6 0 a8.8 8.8 0 1 0 -17.6 0zM685.33 89.44 a8.8 8.8 0 1 0 17.6 0 a8.8 8.8 0 1 0 -17.6 0zM761.54 309.44 a8.8 8.8 0 1 0 17.6 0 a8.8 8.8 0 1 0 -17.6 0zM685.33 353.44 a8.8 8.8 0 1 0 17.6 0 a8.8 8.8 0 1 0 -17.6 0zM609.12 309.44 a8.8 8.8 0 1 0 17.6 0 a8.8 8.8 0 1 0 -17.6 0zM609.12 221.44 a8.8 8.8 0 1 0 17.6 0 a8.8 8.8 0 1 0 -17.6 0zM837.75 -86.56 a8.8 8.8 0 1 0 17.6 0 a8.8 8.8 0 1 0 -17.6 0zM913.97 -42.56 a8.8 8.8 0 1 0 17.6 0 a8.8 8.8 0 1 0 -17.6 0zM913.97 45.44 a8.8 8.8 0 1 0 17.6 0 a8.8 8.8 0 1 0 -17.6 0zM761.54 -42.56 a8.8 8.8 0 1 0 17.6 0 a8.8 8.8 0 1 0 -17.6 0zM990.18 89.44 a8.8 8.8 0 1 0 17.6 0 a8.8 8.8 0 1 0 -17.6 0zM990.18 177.44 a8.8 8.8 0 1 0 17.6 0 a8.8 8.8 0 1 0 -17.6 0zM913.97 221.44 a8.8 8.8 0 1 0 17.6 0 a8.8 8.8 0 1 0 -17.6 0zM1295.03 -86.56 a8.8 8.8 0 1 0 17.6 0 a8.8 8.8 0 1 0 -17.6 0zM1371.24 -42.56 a8.8 8.8 0 1 0 17.6 0 a8.8 8.8 0 1 0 -17.6 0zM1371.24 45.44 a8.8 8.8 0 1 0 17.6 0 a8.8 8.8 0 1 0 -17.6 0zM1295.03 89.44 a8.8 8.8 0 1 0 17.6 0 a8.8 8.8 0 1 0 -17.6 0zM1218.82 45.44 a8.8 8.8 0 1 0 17.6 0 a8.8 8.8 0 1 0 -17.6 0zM1218.82 -42.56 a8.8 8.8 0 1 0 17.6 0 a8.8 8.8 0 1 0 -17.6 0zM1295.03 177.44 a8.8 8.8 0 1 0 17.6 0 a8.8 8.8 0 1 0 -17.6 0zM1371.24 221.44 a8.8 8.8 0 1 0 17.6 0 a8.8 8.8 0 1 0 -17.6 0zM1371.24 309.44 a8.8 8.8 0 1 0 17.6 0 a8.8 8.8 0 1 0 -17.6 0zM1295.03 353.44 a8.8 8.8 0 1 0 17.6 0 a8.8 8.8 0 1 0 -17.6 0zM1218.82 309.44 a8.8 8.8 0 1 0 17.6 0 a8.8 8.8 0 1 0 -17.6 0zM1218.82 221.44 a8.8 8.8 0 1 0 17.6 0 a8.8 8.8 0 1 0 -17.6 0zM1447.45 177.44 a8.8 8.8 0 1 0 17.6 0 a8.8 8.8 0 1 0 -17.6 0zM1523.67 221.44 a8.8 8.8 0 1 0 17.6 0 a8.8 8.8 0 1 0 -17.6 0zM1523.67 309.44 a8.8 8.8 0 1 0 17.6 0 a8.8 8.8 0 1 0 -17.6 0zM1447.45 353.44 a8.8 8.8 0 1 0 17.6 0 a8.8 8.8 0 1 0 -17.6 0z" fill="#03305d"></path><path d="M19.28 -62.82L78.17 -28.82L78.17 39.18L19.28 73.18L-39.61 39.18L-39.61 -28.82zM137.06 -62.82L195.95 -28.82L195.95 39.18L137.06 73.18L78.17 39.18L78.17 -28.82zM195.95 39.18L254.85 73.18L254.85 141.18L195.95 175.18L137.06 141.18L137.06 73.18zM195.95 243.18L254.85 277.18L254.85 345.18L195.95 379.18L137.06 345.18L137.06 277.18zM313.74 243.18L372.63 277.18L372.63 345.18L313.74 379.18L254.85 345.18L254.85 277.18zM372.63 141.18L431.52 175.18L431.52 243.18L372.63 277.18L313.74 243.18L313.74 175.18zM490.41 -62.82L549.3 -28.82L549.3 39.18L490.41 73.18L431.52 39.18L431.52 -28.82zM549.3 39.18L608.19 73.18L608.19 141.18L549.3 175.18L490.41 141.18L490.41 73.18zM549.3 243.18L608.19 277.18L608.19 345.18L549.3 379.18L490.41 345.18L490.41 277.18zM784.87 39.18L843.76 73.18L843.76 141.18L784.87 175.18L725.98 141.18L725.98 73.18zM1197.11 -62.82L1256 -28.82L1256 39.18L1197.11 73.18L1138.22 39.18L1138.22 -28.82zM1256 243.18L1314.89 277.18L1314.89 345.18L1256 379.18L1197.11 345.18L1197.11 277.18zM1373.78 243.18L1432.67 277.18L1432.67 345.18L1373.78 379.18L1314.89 345.18L1314.89 277.18z" stroke="rgba(6, 80, 156, 0.93)" stroke-width="2"></path></g><defs><mask id="SvgjsMask1708"><rect width="1440" height="260" fill="#ffffff"></rect></mask><linearGradient x1="0%" y1="50%" x2="100%" y2="50%" gradientUnits="userSpaceOnUse" id="SvgjsLinearGradient1709"><stop stop-color="#0e2a47" offset="0"></stop><stop stop-color="#00459e" offset="1"></stop></linearGradient></defs></svg>